<svg width="148" height="62" viewBox="0 0 148 62" fill="none" xmlns="http://www.w3.org/2000/svg">
<path d="M10.9773 46.321V61.2528H2.64204V26.3438H10.7045V39.8778H10.9943C11.5852 38.2642 12.5511 37.0028 13.892 36.0938C15.2443 35.1847 16.8977 34.7301 18.8523 34.7301C20.6932 34.7301 22.2955 35.1392 23.6591 35.9574C25.0227 36.7642 26.0795 37.9063 26.8295 39.3835C27.5909 40.8608 27.9659 42.5881 27.9545 44.5653V61.2528H19.6193V46.2017C19.6307 44.7472 19.267 43.6108 18.5284 42.7926C17.7898 41.9744 16.75 41.5653 15.4091 41.5653C14.5341 41.5653 13.7614 41.7585 13.0909 42.1449C12.4318 42.5199 11.9148 43.0597 11.5398 43.7642C11.1761 44.4688 10.9886 45.321 10.9773 46.321Z" fill="white"/>
<path d="M40.5384 61.696C38.8679 61.696 37.3849 61.4176 36.0895 60.8608C34.8054 60.2926 33.7884 59.4403 33.0384 58.304C32.2997 57.1563 31.9304 55.7188 31.9304 53.9915C31.9304 52.5369 32.1861 51.3097 32.6974 50.3097C33.2088 49.3097 33.9134 48.4972 34.8111 47.8722C35.7088 47.2472 36.7429 46.7756 37.9134 46.4574C39.0838 46.1278 40.3338 45.9063 41.6634 45.7926C43.152 45.6563 44.3509 45.5142 45.2599 45.3665C46.169 45.2074 46.8281 44.9858 47.2372 44.7017C47.6577 44.4063 47.8679 43.9915 47.8679 43.4574V43.3722C47.8679 42.4972 47.5668 41.821 46.9645 41.3438C46.3622 40.8665 45.5497 40.6278 44.527 40.6278C43.4247 40.6278 42.5384 40.8665 41.8679 41.3438C41.1974 41.821 40.7713 42.4801 40.5895 43.321L32.902 43.0483C33.1293 41.4574 33.7145 40.0369 34.6577 38.7869C35.6122 37.5256 36.919 36.5369 38.5781 35.821C40.2486 35.0938 42.2543 34.7301 44.5952 34.7301C46.2656 34.7301 47.8054 34.929 49.2145 35.3267C50.6236 35.7131 51.8509 36.2813 52.8963 37.0313C53.9418 37.7699 54.7486 38.679 55.3168 39.7585C55.8963 40.8381 56.1861 42.071 56.1861 43.4574V61.2528H48.3452V57.6051H48.1406C47.6747 58.4915 47.0781 59.2415 46.3509 59.8551C45.6349 60.4688 44.7884 60.929 43.8111 61.2358C42.8452 61.5426 41.7543 61.696 40.5384 61.696ZM43.1122 56.2415C44.0099 56.2415 44.8168 56.0597 45.5327 55.696C46.2599 55.3324 46.8395 54.8324 47.2713 54.196C47.7031 53.5483 47.919 52.7983 47.919 51.946V49.4574C47.6804 49.5824 47.3906 49.696 47.0497 49.7983C46.7202 49.9006 46.3565 49.9972 45.9588 50.0881C45.5611 50.179 45.152 50.2585 44.7315 50.3267C44.3111 50.3949 43.9077 50.4574 43.5213 50.5142C42.7372 50.6392 42.0668 50.8324 41.5099 51.0938C40.9645 51.3551 40.544 51.696 40.2486 52.1165C39.9645 52.5256 39.8224 53.0142 39.8224 53.5824C39.8224 54.446 40.1293 55.1051 40.7429 55.5597C41.3679 56.0142 42.1577 56.2415 43.1122 56.2415Z" fill="white"/>
<path d="M61.2827 61.2528V26.3438H69.6179V39.554H69.7884C70.1293 38.7585 70.6122 37.9915 71.2372 37.2528C71.8736 36.5142 72.6804 35.9119 73.6577 35.446C74.6463 34.9688 75.8281 34.7301 77.2031 34.7301C79.0213 34.7301 80.7202 35.2074 82.2997 36.1619C83.8906 37.1165 85.1747 38.5881 86.152 40.5767C87.1293 42.5653 87.6179 45.0994 87.6179 48.179C87.6179 51.1449 87.1463 53.6278 86.2031 55.6278C85.2713 57.6278 84.0099 59.1278 82.419 60.1278C80.8395 61.1278 79.0838 61.6278 77.152 61.6278C75.8338 61.6278 74.6918 61.4119 73.7259 60.9801C72.7599 60.5483 71.9474 59.9801 71.2884 59.2756C70.6406 58.571 70.1406 57.8153 69.7884 57.0085H69.5327V61.2528H61.2827ZM69.4474 48.1619C69.4474 49.571 69.6349 50.7983 70.0099 51.8438C70.3963 52.8892 70.9474 53.7017 71.6634 54.2813C72.3906 54.8494 73.2599 55.1335 74.2713 55.1335C75.294 55.1335 76.1634 54.8494 76.8793 54.2813C77.5952 53.7017 78.1349 52.8892 78.4986 51.8438C78.8736 50.7983 79.0611 49.571 79.0611 48.1619C79.0611 46.7528 78.8736 45.5313 78.4986 44.4972C78.1349 43.4631 77.5952 42.6619 76.8793 42.0938C76.1747 41.5256 75.3054 41.2415 74.2713 41.2415C73.2486 41.2415 72.3793 41.5199 71.6634 42.0767C70.9474 42.6335 70.3963 43.429 70.0099 44.4631C69.6349 45.4972 69.4474 46.7301 69.4474 48.1619Z" fill="white"/>
<path d="M91.9858 61.2528V35.071H100.321V61.2528H91.9858ZM96.1619 32.0199C94.9915 32.0199 93.9858 31.6335 93.1449 30.8608C92.304 30.0767 91.8835 29.1335 91.8835 28.0313C91.8835 26.9403 92.304 26.0085 93.1449 25.2358C93.9858 24.4517 94.9915 24.0597 96.1619 24.0597C97.3438 24.0597 98.3494 24.4517 99.179 25.2358C100.02 26.0085 100.44 26.9403 100.44 28.0313C100.44 29.1335 100.02 30.0767 99.179 30.8608C98.3494 31.6335 97.3438 32.0199 96.1619 32.0199Z" fill="white"/>
<path d="M120.405 35.071V41.2074H103.888V35.071H120.405ZM107.348 28.7983H115.683V53.0199C115.683 53.5313 115.763 53.946 115.922 54.2642C116.092 54.571 116.337 54.7926 116.655 54.929C116.973 55.054 117.354 55.1165 117.797 55.1165C118.115 55.1165 118.45 55.0881 118.803 55.0313C119.166 54.9631 119.439 54.9063 119.621 54.8608L120.882 60.8778C120.484 60.9915 119.922 61.1335 119.195 61.304C118.479 61.4744 117.621 61.5824 116.621 61.6278C114.666 61.7188 112.99 61.4915 111.592 60.946C110.206 60.3892 109.143 59.5256 108.405 58.3551C107.678 57.1847 107.325 55.7131 107.348 53.9403V28.7983Z" fill="white"/>
<path d="M147.188 43.0653L139.534 43.2699C139.455 42.7244 139.239 42.2415 138.886 41.821C138.534 41.3892 138.074 41.054 137.506 40.8153C136.949 40.5653 136.301 40.4403 135.562 40.4403C134.597 40.4403 133.773 40.6335 133.091 41.0199C132.42 41.4063 132.091 41.929 132.102 42.5881C132.091 43.0994 132.295 43.5426 132.716 43.9176C133.148 44.2926 133.915 44.5938 135.017 44.821L140.062 45.7756C142.676 46.2756 144.619 47.1051 145.892 48.2642C147.176 49.4233 147.824 50.9574 147.835 52.8665C147.824 54.6619 147.29 56.2244 146.233 57.554C145.188 58.8835 143.756 59.9176 141.938 60.6563C140.119 61.3835 138.04 61.7472 135.699 61.7472C131.96 61.7472 129.011 60.9801 126.852 59.446C124.705 57.9006 123.477 55.8324 123.17 53.2415L131.403 53.0369C131.585 53.9915 132.057 54.7188 132.818 55.2188C133.58 55.7188 134.551 55.9688 135.733 55.9688C136.801 55.9688 137.67 55.7699 138.341 55.3722C139.011 54.9744 139.352 54.446 139.364 53.7869C139.352 53.196 139.091 52.7244 138.58 52.3722C138.068 52.0085 137.267 51.7244 136.176 51.5199L131.608 50.6506C128.983 50.1733 127.028 49.2926 125.744 48.0085C124.46 46.7131 123.824 45.0653 123.835 43.0653C123.824 41.3153 124.29 39.821 125.233 38.5824C126.176 37.3324 127.517 36.3778 129.256 35.7188C130.994 35.0597 133.045 34.7301 135.409 34.7301C138.955 34.7301 141.75 35.4744 143.795 36.9631C145.841 38.4403 146.972 40.4744 147.188 43.0653Z" fill="white"/>
<rect x="0.5" y="0.752838" width="15" height="15" rx="3.5" fill="#18181B" stroke="#27272A"/>
<rect x="20.5" y="0.752838" width="15" height="15" rx="3.5" fill="#4C1D95" stroke="#6D28D9"/>
<rect x="40.5" y="0.752838" width="15" height="15" rx="3.5" fill="#5B21B6" stroke="#7C3AED"/>
<rect x="60.5" y="0.752838" width="15" height="15" rx="3.5" fill="#6D28D9" stroke="#8B5CF6"/>
<rect x="80.5" y="0.752838" width="15" height="15" rx="3.5" fill="#7C3AED" stroke="#A78BFA"/>
<rect x="100.5" y="0.752838" width="15" height="15" rx="3.5" fill="#8B5CF6" stroke="#C4B5FD"/>
</svg>
